<?xml version="1.0" encoding="UTF-8" standalone="no"?>
<svg xmlns="http://www.w3.org/2000/svg" xmlns:xlink="http://www.w3.org/1999/xlink" contentScriptType="application/ecmascript" contentStyleType="text/css" height="395px" preserveAspectRatio="none" style="width:918px;height:395px;" version="1.1" viewBox="0 0 918 395" width="918px" zoomAndPan="magnify"><defs/><g><rect fill="#FFFFFF" height="45.6094" style="stroke:#000000;stroke-width:1.5;" width="275" x="7" y="119"/><text fill="#000000" font-family="sans-serif" font-size="12" lengthAdjust="spacing" textLength="70" x="109.5" y="132.1387">pipelineInfo</text><line style="stroke:#000000;stroke-width:1.5;" x1="8" x2="281" y1="136.9688" y2="136.9688"/><text fill="#000000" font-family="sans-serif" font-size="10" lengthAdjust="spacing" textLength="120" x="13" y="150.251">aces:pipelineInfoType</text><line style="stroke:#000000;stroke-width:1.0;stroke-dasharray:1.0,2.0;" x1="8" x2="281" y1="156.6094" y2="156.6094"/><rect fill="#FFFFFF" height="45.6094" style="stroke:#000000;stroke-width:1.5;" width="275" x="322" y="9"/><text fill="#000000" font-family="sans-serif" font-size="12" lengthAdjust="spacing" textLength="68" x="425.5" y="22.1387">description</text><line style="stroke:#000000;stroke-width:1.5;" x1="323" x2="596" y1="26.9688" y2="26.9688"/><text fill="#000000" font-family="sans-serif" font-size="10" lengthAdjust="spacing" textLength="44" x="328" y="40.251">xs:string</text><line style="stroke:#000000;stroke-width:1.0;stroke-dasharray:1.0,2.0;" x1="323" x2="596" y1="46.6094" y2="46.6094"/><rect fill="#FFFFFF" height="45.6094" style="stroke:#000000;stroke-width:1.5;" width="275" x="322" y="65"/><text fill="#000000" font-family="sans-serif" font-size="12" lengthAdjust="spacing" textLength="38" x="440.5" y="78.1387">author</text><line style="stroke:#000000;stroke-width:1.5;" x1="323" x2="596" y1="82.9688" y2="82.9688"/><text fill="#000000" font-family="sans-serif" font-size="10" lengthAdjust="spacing" textLength="91" x="328" y="96.251">aces:authorType</text><line style="stroke:#000000;stroke-width:1.0;stroke-dasharray:1.0,2.0;" x1="323" x2="596" y1="102.6094" y2="102.6094"/><rect fill="#FFFFFF" height="45.6094" style="stroke:#000000;stroke-width:1.5;" width="275" x="637" y="7"/><text fill="#000000" font-family="sans-serif" font-size="12" lengthAdjust="spacing" textLength="33" x="758" y="20.1387">name</text><line style="stroke:#000000;stroke-width:1.5;" x1="638" x2="911" y1="24.9688" y2="24.9688"/><text fill="#000000" font-family="sans-serif" font-size="10" lengthAdjust="spacing" textLength="44" x="643" y="38.251">xs:string</text><line style="stroke:#000000;stroke-width:1.0;stroke-dasharray:1.0,2.0;" x1="638" x2="911" y1="44.6094" y2="44.6094"/><rect fill="#FFFFFF" height="45.6094" style="stroke:#000000;stroke-width:1.5;" width="275" x="637" y="63"/><text fill="#000000" font-family="sans-serif" font-size="12" lengthAdjust="spacing" textLength="83" x="733" y="76.1387">emailAddress</text><line style="stroke:#000000;stroke-width:1.5;" x1="638" x2="911" y1="80.9688" y2="80.9688"/><text fill="#000000" font-family="sans-serif" font-size="10" lengthAdjust="spacing" textLength="128" x="643" y="94.251">aces:emailAddressType</text><line style="stroke:#000000;stroke-width:1.0;stroke-dasharray:1.0,2.0;" x1="638" x2="911" y1="100.6094" y2="100.6094"/><rect fill="#FFFFFF" height="37.6094" style="stroke:#000000;stroke-width:1.5;" width="275" x="322" y="123"/><text fill="#000000" font-family="sans-serif" font-size="12" lengthAdjust="spacing" textLength="56" x="431.5" y="136.1387">dateTime</text><line style="stroke:#000000;stroke-width:1.5;" x1="323" x2="596" y1="140.9688" y2="140.9688"/><text fill="#000000" font-family="sans-serif" font-size="10" lengthAdjust="spacing" textLength="108" x="328" y="154.251">aces:dateTimeType</text><rect fill="#FFFFFF" height="45.6094" style="stroke:#000000;stroke-width:1.5;" width="275" x="637" y="119"/><text fill="#000000" font-family="sans-serif" font-size="12" lengthAdjust="spacing" textLength="106" x="721.5" y="132.1387">creationDateTime</text><line style="stroke:#000000;stroke-width:1.5;" x1="638" x2="911" y1="136.9688" y2="136.9688"/><text fill="#000000" font-family="sans-serif" font-size="10" lengthAdjust="spacing" textLength="67" x="643" y="150.251">xs:dateTime</text><line style="stroke:#000000;stroke-width:1.0;stroke-dasharray:1.0,2.0;" x1="638" x2="911" y1="156.6094" y2="156.6094"/><rect fill="#FFFFFF" height="45.6094" style="stroke:#000000;stroke-width:1.5;" width="275" x="637" y="175"/><text fill="#000000" font-family="sans-serif" font-size="12" lengthAdjust="spacing" textLength="130" x="709.5" y="188.1387">modificationDateTime</text><line style="stroke:#000000;stroke-width:1.5;" x1="638" x2="911" y1="192.9688" y2="192.9688"/><text fill="#000000" font-family="sans-serif" font-size="10" lengthAdjust="spacing" textLength="67" x="643" y="206.251">xs:dateTime</text><line style="stroke:#000000;stroke-width:1.0;stroke-dasharray:1.0,2.0;" x1="638" x2="911" y1="212.6094" y2="212.6094"/><rect fill="#FFFFFF" height="45.6094" style="stroke:#000000;stroke-width:1.5;" width="275" x="322" y="171"/><text fill="#000000" font-family="sans-serif" font-size="12" lengthAdjust="spacing" textLength="25" x="447" y="184.1387">uuid</text><line style="stroke:#000000;stroke-width:1.5;" x1="323" x2="596" y1="188.9688" y2="188.9688"/><text fill="#000000" font-family="sans-serif" font-size="10" lengthAdjust="spacing" textLength="84" x="328" y="202.251">dcml:UUIDType</text><line style="stroke:#000000;stroke-width:1.0;stroke-dasharray:1.0,2.0;" x1="323" x2="596" y1="208.6094" y2="208.6094"/><rect fill="#FFFFFF" height="45.6094" style="stroke:#000000;stroke-width:1.5;" width="275" x="322" y="259"/><text fill="#000000" font-family="sans-serif" font-size="12" lengthAdjust="spacing" textLength="90" x="414.5" y="272.1387">systemVersion</text><line style="stroke:#000000;stroke-width:1.5;" x1="323" x2="596" y1="276.9688" y2="276.9688"/><text fill="#000000" font-family="sans-serif" font-size="10" lengthAdjust="spacing" textLength="94" x="328" y="290.251">aces:versionType</text><line style="stroke:#000000;stroke-width:1.0;stroke-dasharray:1.0,2.0;" x1="323" x2="596" y1="296.6094" y2="296.6094"/><rect fill="#FFFFFF" height="45.6094" style="stroke:#000000;stroke-width:1.5;" width="275" x="637" y="231"/><text fill="#000000" font-family="sans-serif" font-size="12" lengthAdjust="spacing" textLength="80" x="734.5" y="244.1387">majorVersion</text><line style="stroke:#000000;stroke-width:1.5;" x1="638" x2="911" y1="248.9688" y2="248.9688"/><text fill="#000000" font-family="sans-serif" font-size="10" lengthAdjust="spacing" textLength="112" x="643" y="262.251">aces:singleDigitType</text><line style="stroke:#000000;stroke-width:1.0;stroke-dasharray:1.0,2.0;" x1="638" x2="911" y1="268.6094" y2="268.6094"/><rect fill="#FFFFFF" height="45.6094" style="stroke:#000000;stroke-width:1.5;" width="275" x="637" y="287"/><text fill="#000000" font-family="sans-serif" font-size="12" lengthAdjust="spacing" textLength="80" x="734.5" y="300.1387">minorVersion</text><line style="stroke:#000000;stroke-width:1.5;" x1="638" x2="911" y1="304.9688" y2="304.9688"/><text fill="#000000" font-family="sans-serif" font-size="10" lengthAdjust="spacing" textLength="112" x="643" y="318.251">aces:singleDigitType</text><line style="stroke:#000000;stroke-width:1.0;stroke-dasharray:1.0,2.0;" x1="638" x2="911" y1="324.6094" y2="324.6094"/><rect fill="#FFFFFF" height="45.6094" style="stroke:#000000;stroke-width:1.5;" width="275" x="637" y="343"/><text fill="#000000" font-family="sans-serif" font-size="12" lengthAdjust="spacing" textLength="79" x="735" y="356.1387">patchVersion</text><line style="stroke:#000000;stroke-width:1.5;" x1="638" x2="911" y1="360.9688" y2="360.9688"/><text fill="#000000" font-family="sans-serif" font-size="10" lengthAdjust="spacing" textLength="112" x="643" y="374.251">aces:singleDigitType</text><line style="stroke:#000000;stroke-width:1.0;stroke-dasharray:1.0,2.0;" x1="638" x2="911" y1="380.6094" y2="380.6094"/><!--MD5=[2318c7b2480de28c1d973a637f4acb17]
link pipelineInfo.root to pipelineInfo.description--><path codeLine="80" d="M99,118.94 C99,86.685 99,32 99,32 C99,32 316.925,32 316.925,32 " fill="none" id="pipelineInfo.root-to-pipelineInfo.description" style="stroke:#000000;stroke-width:1.0;"/><polygon fill="#000000" points="321.925,32,312.925,28,316.925,32,312.925,36,321.925,32" style="stroke:#000000;stroke-width:1.0;"/><!--MD5=[479c571ca2abf21f9e3b27c9c8f4791c]
link pipelineInfo.root to pipelineInfo.author--><path codeLine="81" d="M191,118.786 C191,104.15 191,88 191,88 C191,88 316.711,88 316.711,88 " fill="none" id="pipelineInfo.root-to-pipelineInfo.author" style="stroke:#000000;stroke-width:1.0;"/><polygon fill="#000000" points="321.711,88,312.711,84,316.711,88,312.711,92,321.711,88" style="stroke:#000000;stroke-width:1.0;"/><!--MD5=[f301000ce9a847e0c0564cc72c17229a]
link pipelineInfo.root to pipelineInfo.dateTime--><path codeLine="82" d="M282.205,142 C282.205,142 316.627,142 316.627,142 " fill="none" id="pipelineInfo.root-to-pipelineInfo.dateTime" style="stroke:#000000;stroke-width:1.0;"/><polygon fill="#000000" points="321.627,142,312.627,138,316.627,142,312.627,146,321.627,142" style="stroke:#000000;stroke-width:1.0;"/><!--MD5=[e9c0fd90e237fa2619fecfe0bbb710be]
link pipelineInfo.root to pipelineInfo.uuid--><path codeLine="83" d="M191,165.262 C191,179.108 191,194 191,194 C191,194 316.711,194 316.711,194 " fill="none" id="pipelineInfo.root-to-pipelineInfo.uuid" style="stroke:#000000;stroke-width:1.0;"/><polygon fill="#000000" points="321.711,194,312.711,190,316.711,194,312.711,198,321.711,194" style="stroke:#000000;stroke-width:1.0;"/><!--MD5=[ec2cb71e36a847756b37156a05fd4e27]
link pipelineInfo.author to pipelineInfo.name--><path codeLine="85" d="M597.019,79.667 C605.674,79.667 611,79.667 611,79.667 C611,79.667 611,31 611,31 C611,31 631.907,31 631.907,31 " fill="none" id="pipelineInfo.author-to-pipelineInfo.name" style="stroke:#000000;stroke-width:1.0;"/><polygon fill="#000000" points="636.907,31,627.907,27,631.907,31,627.907,35,636.907,31" style="stroke:#000000;stroke-width:1.0;"/><!--MD5=[7d6a08438178cf7b105eb4dcf543ef3c]
link pipelineInfo.author to pipelineInfo.emailAddress--><path codeLine="86" d="M597.205,94.333 C597.205,94.333 631.627,94.333 631.627,94.333 " fill="none" id="pipelineInfo.author-to-pipelineInfo.emailAddress" style="stroke:#000000;stroke-width:1.0;"/><polygon fill="#000000" points="636.627,94.333,627.627,90.333,631.627,94.333,627.627,98.333,636.627,94.333" style="stroke:#000000;stroke-width:1.0;"/><!--MD5=[2f6aecf8c33d352c71b50de98e46fd8d]
link pipelineInfo.dateTime to pipelineInfo.creationDateTime--><path codeLine="88" d="M597.205,135.667 C597.205,135.667 631.627,135.667 631.627,135.667 " fill="none" id="pipelineInfo.dateTime-to-pipelineInfo.creationDateTime" style="stroke:#000000;stroke-width:1.0;"/><polygon fill="#000000" points="636.627,135.667,627.627,131.667,631.627,135.667,627.627,139.667,636.627,135.667" style="stroke:#000000;stroke-width:1.0;"/><!--MD5=[460f518aaa71fe3da84eaa45a1a4918e]
link pipelineInfo.dateTime to pipelineInfo.modificationDateTime--><path codeLine="89" d="M597.204,148.333 C613.231,148.333 624,148.333 624,148.333 C624,148.333 624,196 624,196 C624,196 631.832,196 631.832,196 " fill="none" id="pipelineInfo.dateTime-to-pipelineInfo.modificationDateTime" style="stroke:#000000;stroke-width:1.0;"/><polygon fill="#000000" points="636.832,196,627.832,192,631.832,196,627.832,200,636.832,196" style="stroke:#000000;stroke-width:1.0;"/><!--MD5=[bff0b5f961a8685eead11f63aeadbdb0]
link pipelineInfo.root to pipelineInfo.systemVersion--><path codeLine="32" d="M99,165.118 C99,204.882 99,282 99,282 C99,282 316.925,282 316.925,282 " fill="none" id="pipelineInfo.root-to-pipelineInfo.systemVersion" style="stroke:#000000;stroke-width:1.0;"/><polygon fill="#000000" points="321.925,282,312.925,278,316.925,282,312.925,286,321.925,282" style="stroke:#000000;stroke-width:1.0;"/><!--MD5=[7361b63daaf023c70577292789b8be08]
link pipelineInfo.systemVersion to pipelineInfo.majorVersion--><path codeLine="34" d="M597.205,268 C597.205,268 631.627,268 631.627,268 " fill="none" id="pipelineInfo.systemVersion-to-pipelineInfo.majorVersion" style="stroke:#000000;stroke-width:1.0;"/><polygon fill="#000000" points="636.627,268,627.627,264,631.627,268,627.627,272,636.627,268" style="stroke:#000000;stroke-width:1.0;"/><!--MD5=[12ccab681c228bea04c9eb0950b25fe0]
link pipelineInfo.systemVersion to pipelineInfo.minorVersion--><path codeLine="35" d="M597.205,296 C597.205,296 631.627,296 631.627,296 " fill="none" id="pipelineInfo.systemVersion-to-pipelineInfo.minorVersion" style="stroke:#000000;stroke-width:1.0;"/><polygon fill="#000000" points="636.627,296,627.627,292,631.627,296,627.627,300,636.627,296" style="stroke:#000000;stroke-width:1.0;"/><!--MD5=[aa2f6633e19e4c3157cd28925042facf]
link pipelineInfo.systemVersion to pipelineInfo.patchVersion--><path codeLine="36" d="M460,305.3987 C460,330.2536 460,366 460,366 C460,366 631.556,366 631.556,366 " fill="none" id="pipelineInfo.systemVersion-to-pipelineInfo.patchVersion" style="stroke:#000000;stroke-width:1.0;"/><polygon fill="#000000" points="636.556,366,627.556,362,631.556,366,627.556,370,636.556,366" style="stroke:#000000;stroke-width:1.0;"/><!--MD5=[717656147a3ee4a3c869e634c9d5e5c8]
@startuml
left to right direction
skinparam {
	linetype ortho
	Shadowing false
	ObjectBackgroundColor White
	ObjectBorderColor Black
	ArrowColor Black
	MinClassWidth 275
	nodesep 10
	ranksep 40
}

!unquoted procedure pipelineInfo($as)
	info(pipelineInfo)
	object "systemVersion" as $as.systemVersion {
		aces:versionType
		..
	}
	object "majorVersion" as $as.majorVersion {
		aces:singleDigitType
		..
	}
	object "minorVersion" as $as.minorVersion {
		aces:singleDigitType
		..
	}
	object "patchVersion" as $as.patchVersion {
		aces:singleDigitType
		..
	}

	$as.root - -> $as.systemVersion

 	$as.systemVersion - -> $as.majorVersion
	$as.systemVersion - -> $as.minorVersion
 	$as.systemVersion - -> $as.patchVersion
!end procedure

!unquoted procedure info($as, $type="")
	object "$as" as $as.root {
		!if %strlen($type) > 0
			$type
		!else
			%string("aces:" + $as + "Type")
		!endif
		..
	}
	object "description" as $as.description {
		xs:string
		..
	}
	object "author" as $as.author {
		aces:authorType
		..
	}
	object "name" as $as.name {
		xs:string
		..
	}
	object "emailAddress" as $as.emailAddress {
		aces:emailAddressType
		..
	}
	object "dateTime" as $as.dateTime {
		aces:dateTimeType
	}
	object "creationDateTime" as $as.creationDateTime {
		xs:dateTime
		..
	}
	object "modificationDateTime" as $as.modificationDateTime {
		xs:dateTime
		..
	}
	object "uuid" as $as.uuid {
		dcml:UUIDType
		..
	}

	$as.root - -> $as.description
	$as.root - -> $as.author
	$as.root - -> $as.dateTime
	$as.root - -> $as.uuid

	$as.author - -> $as.name
	$as.author - -> $as.emailAddress

	$as.dateTime - -> $as.creationDateTime
	$as.dateTime - -> $as.modificationDateTime
!end procedure

pipelineInfo(pipelineInfo)
@enduml

@startuml
left to right direction
skinparam {
	linetype ortho
	Shadowing false
	ObjectBackgroundColor White
	ObjectBorderColor Black
	ArrowColor Black
	MinClassWidth 275
	nodesep 10
	ranksep 40
}



		object "pipelineInfo" as pipelineInfo.root {
			aces:pipelineInfoType
		..
	}
	object "description" as pipelineInfo.description {
		xs:string
		..
	}
	object "author" as pipelineInfo.author {
		aces:authorType
		..
	}
	object "name" as pipelineInfo.name {
		xs:string
		..
	}
	object "emailAddress" as pipelineInfo.emailAddress {
		aces:emailAddressType
		..
	}
	object "dateTime" as pipelineInfo.dateTime {
		aces:dateTimeType
	}
	object "creationDateTime" as pipelineInfo.creationDateTime {
		xs:dateTime
		..
	}
	object "modificationDateTime" as pipelineInfo.modificationDateTime {
		xs:dateTime
		..
	}
	object "uuid" as pipelineInfo.uuid {
		dcml:UUIDType
		..
	}

	pipelineInfo.root - -> pipelineInfo.description
	pipelineInfo.root - -> pipelineInfo.author
	pipelineInfo.root - -> pipelineInfo.dateTime
	pipelineInfo.root - -> pipelineInfo.uuid

	pipelineInfo.author - -> pipelineInfo.name
	pipelineInfo.author - -> pipelineInfo.emailAddress

	pipelineInfo.dateTime - -> pipelineInfo.creationDateTime
	pipelineInfo.dateTime - -> pipelineInfo.modificationDateTime
	object "systemVersion" as pipelineInfo.systemVersion {
		aces:versionType
		..
	}
	object "majorVersion" as pipelineInfo.majorVersion {
		aces:singleDigitType
		..
	}
	object "minorVersion" as pipelineInfo.minorVersion {
		aces:singleDigitType
		..
	}
	object "patchVersion" as pipelineInfo.patchVersion {
		aces:singleDigitType
		..
	}

	pipelineInfo.root - -> pipelineInfo.systemVersion

 	pipelineInfo.systemVersion - -> pipelineInfo.majorVersion
	pipelineInfo.systemVersion - -> pipelineInfo.minorVersion
 	pipelineInfo.systemVersion - -> pipelineInfo.patchVersion
@enduml

PlantUML version 1.2021.3beta4(Unknown compile time)
(GPL source distribution)
Java Runtime: Java(TM) SE Runtime Environment
JVM: Java HotSpot(TM) 64-Bit Server VM
Default Encoding: UTF-8
Language: en
Country: US
--></g></svg>