<?xml version="1.0" encoding="utf-8"?>
<!-- Generator: Adobe Illustrator 27.2.0, SVG Export Plug-In . SVG Version: 6.00 Build 0)  -->
<svg version="1.1" baseProfile="basic" id="Layer_1"
	 xmlns="http://www.w3.org/2000/svg" xmlns:xlink="http://www.w3.org/1999/xlink" x="0px" y="0px" viewBox="0 0 501.18 41"
	 xml:space="preserve">
<style type="text/css">
	.st0{fill:none;stroke:#000000;stroke-miterlimit:10;}
	.st1{fill:#D5D7D8;stroke:#000000;stroke-miterlimit:10;}
	.st2{font-family:'MyriadPro-Regular';}
	.st3{font-size:10px;}
</style>
<line class="st0" x1="67.99" y1="20.5" x2="440.68" y2="20.5"/>
<polygon class="st1" points="60.71,40.5 0.71,40.5 15.27,0.5 75.27,0.5 "/>
<rect x="94.53" y="0.5" class="st1" width="60" height="40"/>
<rect x="181.07" y="0.5" class="st1" width="60" height="40"/>
<rect x="267.6" y="0.5" class="st1" width="60" height="40"/>
<rect x="354.14" y="0.5" class="st1" width="60" height="40"/>
<rect x="440.68" y="0.5" class="st1" width="60" height="40"/>
<text transform="matrix(1 0 0 1 17.4188 17.4999)"><tspan x="0" y="0" class="st2 st3">ACES RGB</tspan><tspan x="9.38" y="12" class="st2 st3">input</tspan></text>
<text transform="matrix(1 0 0 1 110.44 17.4999)"><tspan x="0" y="0" class="st2 st3">RGB to</tspan><tspan x="5.44" y="12" class="st2 st3">JMh</tspan></text>
<text transform="matrix(1 0 0 1 190.2416 17.4999)"><tspan x="0" y="0" class="st2 st3">Tonescale</tspan><tspan x="6.02" y="12" class="st2 st3">(J only)</tspan></text>
<text transform="matrix(1 0 0 1 280.968 11.4999)"><tspan x="0" y="0" class="st2 st3">Chroma</tspan><tspan x="-10.15" y="12" class="st2 st3">compression</tspan><tspan x="-0.34" y="24" class="st2 st3">(M only)</tspan></text>
<text transform="matrix(1 0 0 1 369.9194 11.4999)"><tspan x="0" y="0" class="st2 st3">Gamut</tspan><tspan x="-12.57" y="12" class="st2 st3">compression</tspan><tspan x="0.37" y="24" class="st2 st3">(M &amp; J)</tspan></text>
<text transform="matrix(1 0 0 1 455.1306 17.4999)"><tspan x="0" y="0" class="st2 st3">Encode</tspan><tspan x="-8.55" y="12" class="st2 st3">output RGB</tspan></text>
<g>
	<line class="st0" x1="73.63" y1="20.5" x2="79.72" y2="20.5"/>
	<g>
		<polygon points="78.26,25.49 86.9,20.5 78.26,15.51 		"/>
	</g>
</g>
<g>
	<line class="st0" x1="160.16" y1="20.5" x2="166.26" y2="20.5"/>
	<g>
		<polygon points="164.8,25.49 173.43,20.5 164.8,15.51 		"/>
	</g>
</g>
<g>
	<line class="st0" x1="246.7" y1="20.5" x2="252.79" y2="20.5"/>
	<g>
		<polygon points="251.33,25.49 259.97,20.5 251.33,15.51 		"/>
	</g>
</g>
<g>
	<line class="st0" x1="333.24" y1="20.5" x2="339.33" y2="20.5"/>
	<g>
		<polygon points="337.87,25.49 346.51,20.5 337.87,15.51 		"/>
	</g>
</g>
<g>
	<line class="st0" x1="419.77" y1="20.5" x2="425.87" y2="20.5"/>
	<g>
		<polygon points="424.41,25.49 433.04,20.5 424.41,15.51 		"/>
	</g>
</g>
</svg>
