<?xml version="1.0" encoding="UTF-8" standalone="no"?>
<svg xmlns="http://www.w3.org/2000/svg" xmlns:xlink="http://www.w3.org/1999/xlink" contentScriptType="application/ecmascript" contentStyleType="text/css" height="991px" preserveAspectRatio="none" style="width:918px;height:991px;" version="1.1" viewBox="0 0 918 991" width="918px" zoomAndPan="magnify"><defs/><g><rect fill="#FFFFFF" height="57.25" style="stroke:#000000;stroke-width:1.5;" width="275" x="7" y="209.5"/><text fill="#000000" font-family="sans-serif" font-size="12" lengthAdjust="spacing" textLength="90" x="99.5" y="222.6387">inputTransform</text><line style="stroke:#000000;stroke-width:1.5;" x1="8" x2="281" y1="227.4688" y2="227.4688"/><text fill="#000000" font-family="sans-serif" font-size="10" lengthAdjust="spacing" textLength="139" x="13" y="240.751">aces:inputTransformType</text><line style="stroke:#000000;stroke-width:1.0;stroke-dasharray:1.0,2.0;" x1="8" x2="281" y1="247.1094" y2="247.1094"/><ellipse cx="18" cy="258.1094" rx="3" ry="3" style="stroke:#038048;stroke-width:1.0;fill:none;"/><text fill="#000000" font-family="sans-serif" font-size="10" lengthAdjust="spacing" textLength="88" x="27" y="260.3916">applied : xs:bool</text><rect fill="#FFFFFF" height="45.6094" style="stroke:#000000;stroke-width:1.5;" width="275" x="322" y="7"/><text fill="#000000" font-family="sans-serif" font-size="12" lengthAdjust="spacing" textLength="68" x="425.5" y="20.1387">description</text><line style="stroke:#000000;stroke-width:1.5;" x1="323" x2="596" y1="24.9688" y2="24.9688"/><text fill="#000000" font-family="sans-serif" font-size="10" lengthAdjust="spacing" textLength="47" x="328" y="38.251">xs: string</text><line style="stroke:#000000;stroke-width:1.0;stroke-dasharray:1.0,2.0;" x1="323" x2="596" y1="44.6094" y2="44.6094"/><rect fill="#FFFFFF" height="57.25" style="stroke:#000000;stroke-width:1.5;" width="275" x="322" y="63.5"/><text fill="#000000" font-family="sans-serif" font-size="12" lengthAdjust="spacing" textLength="28" x="445.5" y="76.6387">hash</text><line style="stroke:#000000;stroke-width:1.5;" x1="323" x2="596" y1="81.4688" y2="81.4688"/><text fill="#000000" font-family="sans-serif" font-size="10" lengthAdjust="spacing" textLength="81" x="328" y="94.751">aces:hashType</text><line style="stroke:#000000;stroke-width:1.0;stroke-dasharray:1.0,2.0;" x1="323" x2="596" y1="101.1094" y2="101.1094"/><ellipse cx="333" cy="112.1094" rx="3" ry="3" style="stroke:#038048;stroke-width:1.0;fill:none;"/><text fill="#000000" font-family="sans-serif" font-size="10" lengthAdjust="spacing" textLength="167" x="342" y="114.3916">algorithm : aces:hashAlgoType</text><rect fill="#FFFFFF" height="45.6094" style="stroke:#000000;stroke-width:1.5;" width="275" x="322" y="131"/><text fill="#000000" font-family="sans-serif" font-size="12" lengthAdjust="spacing" textLength="25" x="447" y="144.1387">uuid</text><line style="stroke:#000000;stroke-width:1.5;" x1="323" x2="596" y1="148.9688" y2="148.9688"/><text fill="#000000" font-family="sans-serif" font-size="10" lengthAdjust="spacing" textLength="84" x="328" y="162.251">dcml:UUIDType</text><line style="stroke:#000000;stroke-width:1.0;stroke-dasharray:1.0,2.0;" x1="323" x2="596" y1="168.6094" y2="168.6094"/><rect fill="#FFFFFF" height="45.6094" style="stroke:#000000;stroke-width:1.5;" width="275" x="322" y="187"/><text fill="#000000" font-family="sans-serif" font-size="12" lengthAdjust="spacing" textLength="18" x="450.5" y="200.1387">file</text><line style="stroke:#000000;stroke-width:1.5;" x1="323" x2="596" y1="204.9688" y2="204.9688"/><text fill="#000000" font-family="sans-serif" font-size="10" lengthAdjust="spacing" textLength="52" x="328" y="218.251">xs:anyURI</text><line style="stroke:#000000;stroke-width:1.0;stroke-dasharray:1.0,2.0;" x1="323" x2="596" y1="224.6094" y2="224.6094"/><rect fill="#FFFFFF" height="45.6094" style="stroke:#000000;stroke-width:1.5;" width="275" x="322" y="243"/><text fill="#000000" font-family="sans-serif" font-size="12" lengthAdjust="spacing" textLength="69" x="425" y="256.1387">transformId</text><line style="stroke:#000000;stroke-width:1.5;" x1="323" x2="596" y1="260.9688" y2="260.9688"/><text fill="#000000" font-family="sans-serif" font-size="10" lengthAdjust="spacing" textLength="123" x="328" y="274.251">aces:tnInputTransform</text><line style="stroke:#000000;stroke-width:1.0;stroke-dasharray:1.0,2.0;" x1="323" x2="596" y1="280.6094" y2="280.6094"/><rect fill="#FFFFFF" height="45.6094" style="stroke:#000000;stroke-width:1.5;" width="275" x="322" y="299"/><text fill="#000000" font-family="sans-serif" font-size="12" lengthAdjust="spacing" textLength="146" x="386.5" y="312.1387">inverseOutputTransform</text><line style="stroke:#000000;stroke-width:1.5;" x1="323" x2="596" y1="316.9688" y2="316.9688"/><text fill="#000000" font-family="sans-serif" font-size="10" lengthAdjust="spacing" textLength="188" x="328" y="330.251">aces:inverseOutputTransformType</text><line style="stroke:#000000;stroke-width:1.0;stroke-dasharray:1.0,2.0;" x1="323" x2="596" y1="336.6094" y2="336.6094"/><rect fill="#FFFFFF" height="45.6094" style="stroke:#000000;stroke-width:1.5;" width="275" x="637" y="119"/><text fill="#000000" font-family="sans-serif" font-size="12" lengthAdjust="spacing" textLength="68" x="740.5" y="132.1387">description</text><line style="stroke:#000000;stroke-width:1.5;" x1="638" x2="911" y1="136.9688" y2="136.9688"/><text fill="#000000" font-family="sans-serif" font-size="10" lengthAdjust="spacing" textLength="47" x="643" y="150.251">xs: string</text><line style="stroke:#000000;stroke-width:1.0;stroke-dasharray:1.0,2.0;" x1="638" x2="911" y1="156.6094" y2="156.6094"/><rect fill="#FFFFFF" height="57.25" style="stroke:#000000;stroke-width:1.5;" width="275" x="637" y="175.5"/><text fill="#000000" font-family="sans-serif" font-size="12" lengthAdjust="spacing" textLength="28" x="760.5" y="188.6387">hash</text><line style="stroke:#000000;stroke-width:1.5;" x1="638" x2="911" y1="193.4688" y2="193.4688"/><text fill="#000000" font-family="sans-serif" font-size="10" lengthAdjust="spacing" textLength="81" x="643" y="206.751">aces:hashType</text><line style="stroke:#000000;stroke-width:1.0;stroke-dasharray:1.0,2.0;" x1="638" x2="911" y1="213.1094" y2="213.1094"/><ellipse cx="648" cy="224.1094" rx="3" ry="3" style="stroke:#038048;stroke-width:1.0;fill:none;"/><text fill="#000000" font-family="sans-serif" font-size="10" lengthAdjust="spacing" textLength="167" x="657" y="226.3916">algorithm : aces:hashAlgoType</text><rect fill="#FFFFFF" height="45.6094" style="stroke:#000000;stroke-width:1.5;" width="275" x="637" y="243"/><text fill="#000000" font-family="sans-serif" font-size="12" lengthAdjust="spacing" textLength="25" x="762" y="256.1387">uuid</text><line style="stroke:#000000;stroke-width:1.5;" x1="638" x2="911" y1="260.9688" y2="260.9688"/><text fill="#000000" font-family="sans-serif" font-size="10" lengthAdjust="spacing" textLength="84" x="643" y="274.251">dcml:UUIDType</text><line style="stroke:#000000;stroke-width:1.0;stroke-dasharray:1.0,2.0;" x1="638" x2="911" y1="280.6094" y2="280.6094"/><rect fill="#FFFFFF" height="45.6094" style="stroke:#000000;stroke-width:1.5;" width="275" x="637" y="299"/><text fill="#000000" font-family="sans-serif" font-size="12" lengthAdjust="spacing" textLength="18" x="765.5" y="312.1387">file</text><line style="stroke:#000000;stroke-width:1.5;" x1="638" x2="911" y1="316.9688" y2="316.9688"/><text fill="#000000" font-family="sans-serif" font-size="10" lengthAdjust="spacing" textLength="52" x="643" y="330.251">xs:anyURI</text><line style="stroke:#000000;stroke-width:1.0;stroke-dasharray:1.0,2.0;" x1="638" x2="911" y1="336.6094" y2="336.6094"/><rect fill="#FFFFFF" height="45.6094" style="stroke:#000000;stroke-width:1.5;" width="275" x="637" y="355"/><text fill="#000000" font-family="sans-serif" font-size="12" lengthAdjust="spacing" textLength="69" x="740" y="368.1387">transformId</text><line style="stroke:#000000;stroke-width:1.5;" x1="638" x2="911" y1="372.9688" y2="372.9688"/><text fill="#000000" font-family="sans-serif" font-size="10" lengthAdjust="spacing" textLength="172" x="643" y="386.251">aces:tnInverseOutputTransform</text><line style="stroke:#000000;stroke-width:1.0;stroke-dasharray:1.0,2.0;" x1="638" x2="911" y1="392.6094" y2="392.6094"/><rect fill="#FFFFFF" height="45.6094" style="stroke:#000000;stroke-width:1.5;" width="275" x="322" y="504"/><text fill="#000000" font-family="sans-serif" font-size="12" lengthAdjust="spacing" textLength="188" x="365.5" y="517.1387">inverseOutputDeviceTransform</text><line style="stroke:#000000;stroke-width:1.5;" x1="323" x2="596" y1="521.9688" y2="521.9688"/><text fill="#000000" font-family="sans-serif" font-size="10" lengthAdjust="spacing" textLength="225" x="328" y="535.251">aces:inverseOutputDeviceTransformType</text><line style="stroke:#000000;stroke-width:1.0;stroke-dasharray:1.0,2.0;" x1="323" x2="596" y1="541.6094" y2="541.6094"/><rect fill="#FFFFFF" height="45.6094" style="stroke:#000000;stroke-width:1.5;" width="275" x="637" y="411"/><text fill="#000000" font-family="sans-serif" font-size="12" lengthAdjust="spacing" textLength="68" x="740.5" y="424.1387">description</text><line style="stroke:#000000;stroke-width:1.5;" x1="638" x2="911" y1="428.9688" y2="428.9688"/><text fill="#000000" font-family="sans-serif" font-size="10" lengthAdjust="spacing" textLength="47" x="643" y="442.251">xs: string</text><line style="stroke:#000000;stroke-width:1.0;stroke-dasharray:1.0,2.0;" x1="638" x2="911" y1="448.6094" y2="448.6094"/><rect fill="#FFFFFF" height="57.25" style="stroke:#000000;stroke-width:1.5;" width="275" x="637" y="467.5"/><text fill="#000000" font-family="sans-serif" font-size="12" lengthAdjust="spacing" textLength="28" x="760.5" y="480.6387">hash</text><line style="stroke:#000000;stroke-width:1.5;" x1="638" x2="911" y1="485.4688" y2="485.4688"/><text fill="#000000" font-family="sans-serif" font-size="10" lengthAdjust="spacing" textLength="81" x="643" y="498.751">aces:hashType</text><line style="stroke:#000000;stroke-width:1.0;stroke-dasharray:1.0,2.0;" x1="638" x2="911" y1="505.1094" y2="505.1094"/><ellipse cx="648" cy="516.1094" rx="3" ry="3" style="stroke:#038048;stroke-width:1.0;fill:none;"/><text fill="#000000" font-family="sans-serif" font-size="10" lengthAdjust="spacing" textLength="167" x="657" y="518.3916">algorithm : aces:hashAlgoType</text><rect fill="#FFFFFF" height="45.6094" style="stroke:#000000;stroke-width:1.5;" width="275" x="637" y="535"/><text fill="#000000" font-family="sans-serif" font-size="12" lengthAdjust="spacing" textLength="25" x="762" y="548.1387">uuid</text><line style="stroke:#000000;stroke-width:1.5;" x1="638" x2="911" y1="552.9688" y2="552.9688"/><text fill="#000000" font-family="sans-serif" font-size="10" lengthAdjust="spacing" textLength="84" x="643" y="566.251">dcml:UUIDType</text><line style="stroke:#000000;stroke-width:1.0;stroke-dasharray:1.0,2.0;" x1="638" x2="911" y1="572.6094" y2="572.6094"/><rect fill="#FFFFFF" height="45.6094" style="stroke:#000000;stroke-width:1.5;" width="275" x="637" y="591"/><text fill="#000000" font-family="sans-serif" font-size="12" lengthAdjust="spacing" textLength="18" x="765.5" y="604.1387">file</text><line style="stroke:#000000;stroke-width:1.5;" x1="638" x2="911" y1="608.9688" y2="608.9688"/><text fill="#000000" font-family="sans-serif" font-size="10" lengthAdjust="spacing" textLength="52" x="643" y="622.251">xs:anyURI</text><line style="stroke:#000000;stroke-width:1.0;stroke-dasharray:1.0,2.0;" x1="638" x2="911" y1="628.6094" y2="628.6094"/><rect fill="#FFFFFF" height="45.6094" style="stroke:#000000;stroke-width:1.5;" width="275" x="637" y="647"/><text fill="#000000" font-family="sans-serif" font-size="12" lengthAdjust="spacing" textLength="69" x="740" y="660.1387">transformId</text><line style="stroke:#000000;stroke-width:1.5;" x1="638" x2="911" y1="664.9688" y2="664.9688"/><text fill="#000000" font-family="sans-serif" font-size="10" lengthAdjust="spacing" textLength="209" x="643" y="678.251">aces:tnInverseOutputDeviceTransform</text><line style="stroke:#000000;stroke-width:1.0;stroke-dasharray:1.0,2.0;" x1="638" x2="911" y1="684.6094" y2="684.6094"/><rect fill="#FFFFFF" height="45.6094" style="stroke:#000000;stroke-width:1.5;" width="275" x="322" y="796"/><text fill="#000000" font-family="sans-serif" font-size="12" lengthAdjust="spacing" textLength="229" x="345" y="809.1387">inverseReferenceRenderingTransform</text><line style="stroke:#000000;stroke-width:1.5;" x1="323" x2="596" y1="813.9688" y2="813.9688"/><text fill="#000000" font-family="sans-serif" font-size="10" lengthAdjust="spacing" textLength="262" x="328" y="827.251">aces:inverseReferenceRenderingTransformType</text><line style="stroke:#000000;stroke-width:1.0;stroke-dasharray:1.0,2.0;" x1="323" x2="596" y1="833.6094" y2="833.6094"/><rect fill="#FFFFFF" height="45.6094" style="stroke:#000000;stroke-width:1.5;" width="275" x="637" y="703"/><text fill="#000000" font-family="sans-serif" font-size="12" lengthAdjust="spacing" textLength="68" x="740.5" y="716.1387">description</text><line style="stroke:#000000;stroke-width:1.5;" x1="638" x2="911" y1="720.9688" y2="720.9688"/><text fill="#000000" font-family="sans-serif" font-size="10" lengthAdjust="spacing" textLength="47" x="643" y="734.251">xs: string</text><line style="stroke:#000000;stroke-width:1.0;stroke-dasharray:1.0,2.0;" x1="638" x2="911" y1="740.6094" y2="740.6094"/><rect fill="#FFFFFF" height="57.25" style="stroke:#000000;stroke-width:1.5;" width="275" x="637" y="759.5"/><text fill="#000000" font-family="sans-serif" font-size="12" lengthAdjust="spacing" textLength="28" x="760.5" y="772.6387">hash</text><line style="stroke:#000000;stroke-width:1.5;" x1="638" x2="911" y1="777.4688" y2="777.4688"/><text fill="#000000" font-family="sans-serif" font-size="10" lengthAdjust="spacing" textLength="81" x="643" y="790.751">aces:hashType</text><line style="stroke:#000000;stroke-width:1.0;stroke-dasharray:1.0,2.0;" x1="638" x2="911" y1="797.1094" y2="797.1094"/><ellipse cx="648" cy="808.1094" rx="3" ry="3" style="stroke:#038048;stroke-width:1.0;fill:none;"/><text fill="#000000" font-family="sans-serif" font-size="10" lengthAdjust="spacing" textLength="167" x="657" y="810.3916">algorithm : aces:hashAlgoType</text><rect fill="#FFFFFF" height="45.6094" style="stroke:#000000;stroke-width:1.5;" width="275" x="637" y="827"/><text fill="#000000" font-family="sans-serif" font-size="12" lengthAdjust="spacing" textLength="25" x="762" y="840.1387">uuid</text><line style="stroke:#000000;stroke-width:1.5;" x1="638" x2="911" y1="844.9688" y2="844.9688"/><text fill="#000000" font-family="sans-serif" font-size="10" lengthAdjust="spacing" textLength="84" x="643" y="858.251">dcml:UUIDType</text><line style="stroke:#000000;stroke-width:1.0;stroke-dasharray:1.0,2.0;" x1="638" x2="911" y1="864.6094" y2="864.6094"/><rect fill="#FFFFFF" height="45.6094" style="stroke:#000000;stroke-width:1.5;" width="275" x="637" y="883"/><text fill="#000000" font-family="sans-serif" font-size="12" lengthAdjust="spacing" textLength="18" x="765.5" y="896.1387">file</text><line style="stroke:#000000;stroke-width:1.5;" x1="638" x2="911" y1="900.9688" y2="900.9688"/><text fill="#000000" font-family="sans-serif" font-size="10" lengthAdjust="spacing" textLength="52" x="643" y="914.251">xs:anyURI</text><line style="stroke:#000000;stroke-width:1.0;stroke-dasharray:1.0,2.0;" x1="638" x2="911" y1="920.6094" y2="920.6094"/><rect fill="#FFFFFF" height="45.6094" style="stroke:#000000;stroke-width:1.5;" width="275" x="637" y="939"/><text fill="#000000" font-family="sans-serif" font-size="12" lengthAdjust="spacing" textLength="69" x="740" y="952.1387">transformId</text><line style="stroke:#000000;stroke-width:1.5;" x1="638" x2="911" y1="956.9688" y2="956.9688"/><text fill="#000000" font-family="sans-serif" font-size="10" lengthAdjust="spacing" textLength="246" x="643" y="970.251">aces:tnInverseReferenceRenderingTransform</text><line style="stroke:#000000;stroke-width:1.0;stroke-dasharray:1.0,2.0;" x1="638" x2="911" y1="976.6094" y2="976.6094"/><!--MD5=[b93f56550002988e6090399f2b61f3b6]
link inputTransform.root to inputTransform.description--><path codeLine="50" d="M76,209.078 C76,151.926 76,30 76,30 C76,30 316.86,30 316.86,30 " fill="none" id="inputTransform.root-to-inputTransform.description" style="stroke:#000000;stroke-width:1.0;"/><polygon fill="#000000" points="321.86,30,312.86,26,316.86,30,312.86,34,321.86,30" style="stroke:#000000;stroke-width:1.0;"/><!--MD5=[e673929ea2432c844316ba75115531e2]
link inputTransform.root to inputTransform.hash--><path codeLine="51" d="M145,209.155 C145,166.606 145,92 145,92 C145,92 316.556,92 316.556,92 " fill="none" id="inputTransform.root-to-inputTransform.hash" style="stroke:#000000;stroke-width:1.0;"/><polygon fill="#000000" points="321.556,92,312.556,88,316.556,92,312.556,96,321.556,92" style="stroke:#000000;stroke-width:1.0;"/><!--MD5=[68c0e1a3e279ce3229b6100894da2ac0]
link inputTransform.root to inputTransform.uuid--><path codeLine="52" d="M214,209.092 C214,184.794 214,154 214,154 C214,154 316.68,154 316.68,154 " fill="none" id="inputTransform.root-to-inputTransform.uuid" style="stroke:#000000;stroke-width:1.0;"/><polygon fill="#000000" points="321.68,154,312.68,150,316.68,154,312.68,158,321.68,154" style="stroke:#000000;stroke-width:1.0;"/><!--MD5=[b02c31c929887794d868e5372996a8a0]
link inputTransform.root to inputTransform.file--><path codeLine="53" d="M282.205,221.25 C282.205,221.25 316.627,221.25 316.627,221.25 " fill="none" id="inputTransform.root-to-inputTransform.file" style="stroke:#000000;stroke-width:1.0;"/><polygon fill="#000000" points="321.627,221.25,312.627,217.25,316.627,221.25,312.627,225.25,321.627,221.25" style="stroke:#000000;stroke-width:1.0;"/><!--MD5=[299b6c34d43e954e7cc64e99cb2f384b]
link inputTransform.root to inputTransform.transformId--><path codeLine="54" d="M282.205,254.75 C282.205,254.75 316.627,254.75 316.627,254.75 " fill="none" id="inputTransform.root-to-inputTransform.transformId" style="stroke:#000000;stroke-width:1.0;"/><polygon fill="#000000" points="321.627,254.75,312.627,250.75,316.627,254.75,312.627,258.75,321.627,254.75" style="stroke:#000000;stroke-width:1.0;"/><!--MD5=[630602e12730e4dc9d4996861819edca]
link inverseOutputTransform.root to inverseOutputTransform.description--><path codeLine="50" d="M597.322,308.2 C603.399,308.2 607,308.2 607,308.2 C607,308.2 607,148 607,148 C607,148 631.946,148 631.946,148 " fill="none" id="inverseOutputTransform.root-to-inverseOutputTransform.description" style="stroke:#000000;stroke-width:1.0;"/><polygon fill="#000000" points="636.946,148,627.946,144,631.946,148,627.946,152,636.946,148" style="stroke:#000000;stroke-width:1.0;"/><!--MD5=[c95114213761c7e8001fe1dab1806c80]
link inverseOutputTransform.root to inverseOutputTransform.hash--><path codeLine="51" d="M597.053,317.4 C609.192,317.4 617,317.4 617,317.4 C617,317.4 617,209.75 617,209.75 C617,209.75 631.947,209.75 631.947,209.75 " fill="none" id="inverseOutputTransform.root-to-inverseOutputTransform.hash" style="stroke:#000000;stroke-width:1.0;"/><polygon fill="#000000" points="636.947,209.75,627.947,205.75,631.947,209.75,627.947,213.75,636.947,209.75" style="stroke:#000000;stroke-width:1.0;"/><!--MD5=[dd73c951e791a7ed93bf8cebe925bc14]
link inverseOutputTransform.root to inverseOutputTransform.uuid--><path codeLine="52" d="M597.054,326.6 C614.832,326.6 627,326.6 627,326.6 C627,326.6 627,266 627,266 C627,266 631.678,266 631.678,266 " fill="none" id="inverseOutputTransform.root-to-inverseOutputTransform.uuid" style="stroke:#000000;stroke-width:1.0;"/><polygon fill="#000000" points="636.678,266,627.678,262,631.678,266,627.678,270,636.678,266" style="stroke:#000000;stroke-width:1.0;"/><!--MD5=[d6c98893b11b38911c6b6adf12f0a151]
link inverseOutputTransform.root to inverseOutputTransform.file--><path codeLine="53" d="M597.205,335.8 C597.205,335.8 631.627,335.8 631.627,335.8 " fill="none" id="inverseOutputTransform.root-to-inverseOutputTransform.file" style="stroke:#000000;stroke-width:1.0;"/><polygon fill="#000000" points="636.627,335.8,627.627,331.8,631.627,335.8,627.627,339.8,636.627,335.8" style="stroke:#000000;stroke-width:1.0;"/><!--MD5=[4e74d0234945cd087153cddac3c6eb99]
link inverseOutputTransform.root to inverseOutputTransform.transformId--><path codeLine="54" d="M506,345.101 C506,360.526 506,378 506,378 C506,378 631.711,378 631.711,378 " fill="none" id="inverseOutputTransform.root-to-inverseOutputTransform.transformId" style="stroke:#000000;stroke-width:1.0;"/><polygon fill="#000000" points="636.711,378,627.711,374,631.711,378,627.711,382,636.711,378" style="stroke:#000000;stroke-width:1.0;"/><!--MD5=[682897e770b5e6bdaacf03ffe6f8be13]
link inverseOutputDeviceTransform.root to inverseOutputDeviceTransform.description--><path codeLine="50" d="M414,503.532 C414,475.982 414,434 414,434 C414,434 631.925,434 631.925,434 " fill="none" id="inverseOutputDeviceTransform.root-to-inverseOutputDeviceTransform.description" style="stroke:#000000;stroke-width:1.0;"/><polygon fill="#000000" points="636.925,434,627.925,430,631.925,434,627.925,438,636.925,434" style="stroke:#000000;stroke-width:1.0;"/><!--MD5=[63dfa6d813cecfc99c02cc5d97bdbd86]
link inverseOutputDeviceTransform.root to inverseOutputDeviceTransform.hash--><path codeLine="51" d="M597.205,514.25 C597.205,514.25 631.627,514.25 631.627,514.25 " fill="none" id="inverseOutputDeviceTransform.root-to-inverseOutputDeviceTransform.hash" style="stroke:#000000;stroke-width:1.0;"/><polygon fill="#000000" points="636.627,514.25,627.627,510.25,631.627,514.25,627.627,518.25,636.627,514.25" style="stroke:#000000;stroke-width:1.0;"/><!--MD5=[fb8cb3ea8cb1bf6a0fdb96ae8527d5d0]
link inverseOutputDeviceTransform.root to inverseOutputDeviceTransform.uuid--><path codeLine="52" d="M597.205,542.5 C597.205,542.5 631.627,542.5 631.627,542.5 " fill="none" id="inverseOutputDeviceTransform.root-to-inverseOutputDeviceTransform.uuid" style="stroke:#000000;stroke-width:1.0;"/><polygon fill="#000000" points="636.627,542.5,627.627,538.5,631.627,542.5,627.627,546.5,636.627,542.5" style="stroke:#000000;stroke-width:1.0;"/><!--MD5=[39c269a516456cfc88968dc2b301f006]
link inverseOutputDeviceTransform.root to inverseOutputDeviceTransform.file--><path codeLine="53" d="M529,550.314 C529,576.085 529,614 529,614 C529,614 631.68,614 631.68,614 " fill="none" id="inverseOutputDeviceTransform.root-to-inverseOutputDeviceTransform.file" style="stroke:#000000;stroke-width:1.0;"/><polygon fill="#000000" points="636.68,614,627.68,610,631.68,614,627.68,618,636.68,614" style="stroke:#000000;stroke-width:1.0;"/><!--MD5=[fa62c8d9ff46196daaeb40062eb1680e]
link inverseOutputDeviceTransform.root to inverseOutputDeviceTransform.transformId--><path codeLine="54" d="M391,550.294 C391,590.814 391,670 391,670 C391,670 631.86,670 631.86,670 " fill="none" id="inverseOutputDeviceTransform.root-to-inverseOutputDeviceTransform.transformId" style="stroke:#000000;stroke-width:1.0;"/><polygon fill="#000000" points="636.86,670,627.86,666,631.86,670,627.86,674,636.86,670" style="stroke:#000000;stroke-width:1.0;"/><!--MD5=[471042f7127e9529a1b692feaa5477ef]
link inverseReferenceRenderingTransform.root to inverseReferenceRenderingTransform.description--><path codeLine="50" d="M460,795.532 C460,767.982 460,726 460,726 C460,726 631.556,726 631.556,726 " fill="none" id="inverseReferenceRenderingTransform.root-to-inverseReferenceRenderingTransform.description" style="stroke:#000000;stroke-width:1.0;"/><polygon fill="#000000" points="636.556,726,627.556,722,631.556,726,627.556,730,636.556,726" style="stroke:#000000;stroke-width:1.0;"/><!--MD5=[3a9c3a4d5b72b775e9effb1e52daaafa]
link inverseReferenceRenderingTransform.root to inverseReferenceRenderingTransform.hash--><path codeLine="51" d="M597.205,806.25 C597.205,806.25 631.627,806.25 631.627,806.25 " fill="none" id="inverseReferenceRenderingTransform.root-to-inverseReferenceRenderingTransform.hash" style="stroke:#000000;stroke-width:1.0;"/><polygon fill="#000000" points="636.627,806.25,627.627,802.25,631.627,806.25,627.627,810.25,636.627,806.25" style="stroke:#000000;stroke-width:1.0;"/><!--MD5=[f6223b16102020429b068a6cd42b3d3f]
link inverseReferenceRenderingTransform.root to inverseReferenceRenderingTransform.uuid--><path codeLine="52" d="M597.205,834.5 C597.205,834.5 631.627,834.5 631.627,834.5 " fill="none" id="inverseReferenceRenderingTransform.root-to-inverseReferenceRenderingTransform.uuid" style="stroke:#000000;stroke-width:1.0;"/><polygon fill="#000000" points="636.627,834.5,627.627,830.5,631.627,834.5,627.627,838.5,636.627,834.5" style="stroke:#000000;stroke-width:1.0;"/><!--MD5=[f2c6a7024015e464107e98b0eda41559]
link inverseReferenceRenderingTransform.root to inverseReferenceRenderingTransform.file--><path codeLine="53" d="M506,842.314 C506,868.085 506,906 506,906 C506,906 631.711,906 631.711,906 " fill="none" id="inverseReferenceRenderingTransform.root-to-inverseReferenceRenderingTransform.file" style="stroke:#000000;stroke-width:1.0;"/><polygon fill="#000000" points="636.711,906,627.711,902,631.711,906,627.711,910,636.711,906" style="stroke:#000000;stroke-width:1.0;"/><!--MD5=[611672c75efd4e43d301cacc9833cde0]
link inverseReferenceRenderingTransform.root to inverseReferenceRenderingTransform.transformId--><path codeLine="54" d="M414,842.294 C414,882.814 414,962 414,962 C414,962 631.925,962 631.925,962 " fill="none" id="inverseReferenceRenderingTransform.root-to-inverseReferenceRenderingTransform.transformId" style="stroke:#000000;stroke-width:1.0;"/><polygon fill="#000000" points="636.925,962,627.925,958,631.925,962,627.925,966,636.925,962" style="stroke:#000000;stroke-width:1.0;"/><!--MD5=[e72fe5c2f6a1c4a042114722e1e22f73]
link inputTransform.root to inverseOutputTransform.root--><path codeLine="63" d="M214,266.908 C214,291.206 214,322 214,322 C214,322 316.68,322 316.68,322 " fill="none" id="inputTransform.root-to-inverseOutputTransform.root" style="stroke:#000000;stroke-width:1.0;"/><polygon fill="#000000" points="321.68,322,312.68,318,316.68,322,312.68,326,321.68,322" style="stroke:#000000;stroke-width:1.0;"/><!--MD5=[130b328e7ab84e1f24da67bdb791a380]
link inputTransform.root to inverseOutputDeviceTransform.root--><path codeLine="64" d="M145,266.501 C145,339.412 145,527 145,527 C145,527 316.556,527 316.556,527 " fill="none" id="inputTransform.root-to-inverseOutputDeviceTransform.root" style="stroke:#000000;stroke-width:1.0;"/><polygon fill="#000000" points="321.556,527,312.556,523,316.556,527,312.556,531,321.556,527" style="stroke:#000000;stroke-width:1.0;"/><!--MD5=[2d48fc619f09334b39968e8ba41fe60b]
link inputTransform.root to inverseReferenceRenderingTransform.root--><path codeLine="65" d="M76,266.812 C76,384.046 76,819 76,819 C76,819 316.86,819 316.86,819 " fill="none" id="inputTransform.root-to-inverseReferenceRenderingTransform.root" style="stroke:#000000;stroke-width:1.0;"/><polygon fill="#000000" points="321.86,819,312.86,815,316.86,819,312.86,823,321.86,819" style="stroke:#000000;stroke-width:1.0;"/><!--MD5=[ab37a3a900e282922996c1a6650ee13c]
@startuml
left to right direction
skinparam {
	linetype ortho
	Shadowing false
	ObjectBackgroundColor White
	ObjectBorderColor Black
	ArrowColor Black
	MinClassWidth 275
	nodesep 10
	ranksep 40
}

!unquoted procedure transform($as, $tn="", $attr="")
	object "$as" as $as.root {
		%string("aces:" + $as + "Type")
		..
		!if %strlen($attr) > 0
			$attr
		!endif
	}
	object "description" as $as.description {
		xs: string
		..
	}
	object "hash" as $as.hash {
		aces:hashType
		..
		+ algorithm : aces:hashAlgoType
	}
	object "uuid" as $as.uuid {
		dcml:UUIDType
		..
	}
	object "file" as $as.file {
		xs:anyURI
		..
	}
	object "transformId" as $as.transformId {
		!if %strlen($tn) > 0
			$tn
		!else
			!$pre = "aces:tn"
			!$cap = %upper(%substr($as,0,1))
			!$post = %substr($as,1,%strlen($as))
			%string($pre + $cap + $post)
		!endif
		..
	}

	$as.root - -> $as.description
	$as.root - -> $as.hash
	$as.root - -> $as.uuid
	$as.root - -> $as.file
	$as.root - -> $as.transformId
!end procedure

!unquoted procedure inputTransform($as)
	transform($as, $attr="+ applied : xs:bool")
	transform(inverseOutputTransform)
	transform(inverseOutputDeviceTransform)
	transform(inverseReferenceRenderingTransform)

	$as.root - -> inverseOutputTransform.root
	$as.root - -> inverseOutputDeviceTransform.root
	$as.root - -> inverseReferenceRenderingTransform.root
!end procedure

inputTransform(inputTransform)
@enduml

@startuml
left to right direction
skinparam {
	linetype ortho
	Shadowing false
	ObjectBackgroundColor White
	ObjectBorderColor Black
	ArrowColor Black
	MinClassWidth 275
	nodesep 10
	ranksep 40
}



		object "inputTransform" as inputTransform.root {
		aces:inputTransformType
		..
			+ applied : xs:bool
	}
	object "description" as inputTransform.description {
		xs: string
		..
	}
	object "hash" as inputTransform.hash {
		aces:hashType
		..
		+ algorithm : aces:hashAlgoType
	}
	object "uuid" as inputTransform.uuid {
		dcml:UUIDType
		..
	}
	object "file" as inputTransform.file {
		xs:anyURI
		..
	}
	object "transformId" as inputTransform.transformId {
			aces:tnInputTransform
		..
	}

	inputTransform.root - -> inputTransform.description
	inputTransform.root - -> inputTransform.hash
	inputTransform.root - -> inputTransform.uuid
	inputTransform.root - -> inputTransform.file
	inputTransform.root - -> inputTransform.transformId
		object "inverseOutputTransform" as inverseOutputTransform.root {
		aces:inverseOutputTransformType
		..
	}
	object "description" as inverseOutputTransform.description {
		xs: string
		..
	}
	object "hash" as inverseOutputTransform.hash {
		aces:hashType
		..
		+ algorithm : aces:hashAlgoType
	}
	object "uuid" as inverseOutputTransform.uuid {
		dcml:UUIDType
		..
	}
	object "file" as inverseOutputTransform.file {
		xs:anyURI
		..
	}
	object "transformId" as inverseOutputTransform.transformId {
			aces:tnInverseOutputTransform
		..
	}

	inverseOutputTransform.root - -> inverseOutputTransform.description
	inverseOutputTransform.root - -> inverseOutputTransform.hash
	inverseOutputTransform.root - -> inverseOutputTransform.uuid
	inverseOutputTransform.root - -> inverseOutputTransform.file
	inverseOutputTransform.root - -> inverseOutputTransform.transformId
		object "inverseOutputDeviceTransform" as inverseOutputDeviceTransform.root {
		aces:inverseOutputDeviceTransformType
		..
	}
	object "description" as inverseOutputDeviceTransform.description {
		xs: string
		..
	}
	object "hash" as inverseOutputDeviceTransform.hash {
		aces:hashType
		..
		+ algorithm : aces:hashAlgoType
	}
	object "uuid" as inverseOutputDeviceTransform.uuid {
		dcml:UUIDType
		..
	}
	object "file" as inverseOutputDeviceTransform.file {
		xs:anyURI
		..
	}
	object "transformId" as inverseOutputDeviceTransform.transformId {
			aces:tnInverseOutputDeviceTransform
		..
	}

	inverseOutputDeviceTransform.root - -> inverseOutputDeviceTransform.description
	inverseOutputDeviceTransform.root - -> inverseOutputDeviceTransform.hash
	inverseOutputDeviceTransform.root - -> inverseOutputDeviceTransform.uuid
	inverseOutputDeviceTransform.root - -> inverseOutputDeviceTransform.file
	inverseOutputDeviceTransform.root - -> inverseOutputDeviceTransform.transformId
		object "inverseReferenceRenderingTransform" as inverseReferenceRenderingTransform.root {
		aces:inverseReferenceRenderingTransformType
		..
	}
	object "description" as inverseReferenceRenderingTransform.description {
		xs: string
		..
	}
	object "hash" as inverseReferenceRenderingTransform.hash {
		aces:hashType
		..
		+ algorithm : aces:hashAlgoType
	}
	object "uuid" as inverseReferenceRenderingTransform.uuid {
		dcml:UUIDType
		..
	}
	object "file" as inverseReferenceRenderingTransform.file {
		xs:anyURI
		..
	}
	object "transformId" as inverseReferenceRenderingTransform.transformId {
			aces:tnInverseReferenceRenderingTransform
		..
	}

	inverseReferenceRenderingTransform.root - -> inverseReferenceRenderingTransform.description
	inverseReferenceRenderingTransform.root - -> inverseReferenceRenderingTransform.hash
	inverseReferenceRenderingTransform.root - -> inverseReferenceRenderingTransform.uuid
	inverseReferenceRenderingTransform.root - -> inverseReferenceRenderingTransform.file
	inverseReferenceRenderingTransform.root - -> inverseReferenceRenderingTransform.transformId

	inputTransform.root - -> inverseOutputTransform.root
	inputTransform.root - -> inverseOutputDeviceTransform.root
	inputTransform.root - -> inverseReferenceRenderingTransform.root
@enduml

PlantUML version 1.2021.3beta4(Unknown compile time)
(GPL source distribution)
Java Runtime: Java(TM) SE Runtime Environment
JVM: Java HotSpot(TM) 64-Bit Server VM
Default Encoding: UTF-8
Language: en
Country: US
--></g></svg>