<?xml version="1.0" encoding="UTF-8" standalone="no"?>
<svg xmlns="http://www.w3.org/2000/svg" xmlns:xlink="http://www.w3.org/1999/xlink" contentScriptType="application/ecmascript" contentStyleType="text/css" height="227px" preserveAspectRatio="none" style="width:603px;height:227px;" version="1.1" viewBox="0 0 603 227" width="603px" zoomAndPan="magnify"><defs/><g><rect fill="#FFFFFF" height="68.8906" style="stroke:#000000;stroke-width:1.5;" width="275" x="7" y="79.5"/><text fill="#000000" font-family="sans-serif" font-size="12" lengthAdjust="spacing" textLength="105" x="92" y="92.6387">acesMetadataFile</text><line style="stroke:#000000;stroke-width:1.5;" x1="8" x2="281" y1="97.4688" y2="97.4688"/><text fill="#000000" font-family="sans-serif" font-size="10" lengthAdjust="spacing" textLength="88" x="13" y="110.751">xs:complexType</text><line style="stroke:#000000;stroke-width:1.0;stroke-dasharray:1.0,2.0;" x1="8" x2="281" y1="117.1094" y2="117.1094"/><ellipse cx="18" cy="128.1094" rx="3" ry="3" style="stroke:#038048;stroke-width:1.0;fill:none;"/><text fill="#000000" font-family="sans-serif" font-size="10" lengthAdjust="spacing" textLength="106" x="27" y="130.3916">version : xs:decimal</text><ellipse cx="18" cy="139.75" rx="3" ry="3" style="stroke:#038048;stroke-width:1.0;fill:none;"/><text fill="#000000" font-family="sans-serif" font-size="10" lengthAdjust="spacing" textLength="85" x="27" y="142.0322">xmlns : xs:string</text><rect fill="#FFFFFF" height="45.6094" style="stroke:#000000;stroke-width:1.5;" width="275" x="322" y="7"/><text fill="#000000" font-family="sans-serif" font-size="12" lengthAdjust="spacing" textLength="44" x="437.5" y="20.1387">amfInfo</text><line style="stroke:#000000;stroke-width:1.5;" x1="323" x2="596" y1="24.9688" y2="24.9688"/><text fill="#000000" font-family="sans-serif" font-size="10" lengthAdjust="spacing" textLength="76" x="328" y="38.251">aces:infoType</text><line style="stroke:#000000;stroke-width:1.0;stroke-dasharray:1.0,2.0;" x1="323" x2="596" y1="44.6094" y2="44.6094"/><rect fill="#FFFFFF" height="45.6094" style="stroke:#000000;stroke-width:1.5;" width="275" x="322" y="63"/><text fill="#000000" font-family="sans-serif" font-size="12" lengthAdjust="spacing" textLength="32" x="443.5" y="76.1387">clipId</text><line style="stroke:#000000;stroke-width:1.5;" x1="323" x2="596" y1="80.9688" y2="80.9688"/><text fill="#000000" font-family="sans-serif" font-size="10" lengthAdjust="spacing" textLength="84" x="328" y="94.251">aces:clipIdType</text><line style="stroke:#000000;stroke-width:1.0;stroke-dasharray:1.0,2.0;" x1="323" x2="596" y1="100.6094" y2="100.6094"/><rect fill="#FFFFFF" height="45.6094" style="stroke:#000000;stroke-width:1.5;" width="275" x="322" y="119"/><text fill="#000000" font-family="sans-serif" font-size="12" lengthAdjust="spacing" textLength="48" x="435.5" y="132.1387">pipeline</text><line style="stroke:#000000;stroke-width:1.5;" x1="323" x2="596" y1="136.9688" y2="136.9688"/><text fill="#000000" font-family="sans-serif" font-size="10" lengthAdjust="spacing" textLength="99" x="328" y="150.251">aces:pipelineType</text><line style="stroke:#000000;stroke-width:1.0;stroke-dasharray:1.0,2.0;" x1="323" x2="596" y1="156.6094" y2="156.6094"/><rect fill="#FFFFFF" height="45.6094" style="stroke:#000000;stroke-width:1.5;" width="275" x="322" y="175"/><text fill="#000000" font-family="sans-serif" font-size="12" lengthAdjust="spacing" textLength="98" x="410.5" y="188.1387">archivedPipeline</text><line style="stroke:#000000;stroke-width:1.5;" x1="323" x2="596" y1="192.9688" y2="192.9688"/><text fill="#000000" font-family="sans-serif" font-size="10" lengthAdjust="spacing" textLength="99" x="328" y="206.251">aces:pipelineType</text><line style="stroke:#000000;stroke-width:1.0;stroke-dasharray:1.0,2.0;" x1="323" x2="596" y1="212.6094" y2="212.6094"/><!--MD5=[6987990efa3ba2f20b195472e8d88d2e]
link acesMetadataFile to amfInfo--><path codeLine="40" d="M145,79.349 C145,56.21 145,30 145,30 C145,30 316.556,30 316.556,30 " fill="none" id="acesMetadataFile-to-amfInfo" style="stroke:#000000;stroke-width:1.0;"/><polygon fill="#000000" points="321.556,30,312.556,26,316.556,30,312.556,34,321.556,30" style="stroke:#000000;stroke-width:1.0;"/><!--MD5=[a017d93763f14cacb19f0c35c48f06ff]
link acesMetadataFile to clipId--><path codeLine="41" d="M282.205,94.25 C282.205,94.25 316.627,94.25 316.627,94.25 " fill="none" id="acesMetadataFile-to-clipId" style="stroke:#000000;stroke-width:1.0;"/><polygon fill="#000000" points="321.627,94.25,312.627,90.25,316.627,94.25,312.627,98.25,321.627,94.25" style="stroke:#000000;stroke-width:1.0;"/><!--MD5=[03e9739ae6d58ac06db2a3862fc12fbe]
link acesMetadataFile to pipeline--><path codeLine="42" d="M282.205,133.75 C282.205,133.75 316.627,133.75 316.627,133.75 " fill="none" id="acesMetadataFile-to-pipeline" style="stroke:#000000;stroke-width:1.0;"/><polygon fill="#000000" points="321.627,133.75,312.627,129.75,316.627,133.75,312.627,137.75,321.627,133.75" style="stroke:#000000;stroke-width:1.0;"/><!--MD5=[10bbe1d99493931d21dd9341da06b6bd]
link acesMetadataFile to archivedPipeline--><path codeLine="43" d="M145,148.651 C145,171.7897 145,198 145,198 C145,198 316.556,198 316.556,198 " fill="none" id="acesMetadataFile-to-archivedPipeline" style="stroke:#000000;stroke-width:1.0;"/><polygon fill="#000000" points="321.556,198,312.556,194,316.556,198,312.556,202,321.556,198" style="stroke:#000000;stroke-width:1.0;"/><!--MD5=[7923e892d082ae0289bde469ce4a59da]
@startuml
left to right direction
skinparam {
	linetype ortho
	Shadowing false
	ObjectBackgroundColor White
	ObjectBorderColor Black
	ArrowColor Black
	MinClassWidth 275
	nodesep 10
	ranksep 40
}

object acesMetadataFile {
	xs:complexType
	..
	+ version : xs:decimal
	+ xmlns : xs:string
}

object amfInfo {
	aces:infoType
	..
}

object clipId {
	aces:clipIdType
	..
}

object pipeline {
	aces:pipelineType
	..
}

object archivedPipeline {
	aces:pipelineType
	..
}

acesMetadataFile - -> amfInfo
acesMetadataFile - -> clipId
acesMetadataFile - -> pipeline
acesMetadataFile - -> archivedPipeline
@enduml

PlantUML version 1.2021.3beta4(Unknown compile time)
(GPL source distribution)
Java Runtime: Java(TM) SE Runtime Environment
JVM: Java HotSpot(TM) 64-Bit Server VM
Default Encoding: UTF-8
Language: en
Country: US
--></g></svg>